<svg width="12" height="16" viewBox="0 0 12 16" fill="none" xmlns="http://www.w3.org/2000/svg">
<path fill-rule="evenodd" clip-rule="evenodd" d="M2.13333 4.26706C2.13333 2.13156 3.8645 0.400391 6 0.400391C8.1355 0.400391 9.86667 2.13156 9.86667 4.26706V7.46706C9.86667 9.60256 8.1355 11.3337 6 11.3337C3.8645 11.3337 2.13333 9.60256 2.13333 7.46706V4.26706ZM6 1.73372C4.60088 1.73372 3.46667 2.86794 3.46667 4.26706V7.46706C3.46667 8.86618 4.60088 10.0004 6 10.0004C7.39912 10.0004 8.53333 8.86618 8.53333 7.46706V4.26706C8.53333 2.86794 7.39912 1.73372 6 1.73372Z" fill="#9A9CA5"/>
<path fill-rule="evenodd" clip-rule="evenodd" d="M0.666667 5.73372C1.03486 5.73372 1.33333 6.0322 1.33333 6.40039V7.46706C1.33333 10.0444 3.42267 12.1337 6 12.1337C8.57733 12.1337 10.6667 10.0444 10.6667 7.46706V6.40039C10.6667 6.0322 10.9651 5.73372 11.3333 5.73372C11.7015 5.73372 12 6.0322 12 6.40039V7.46706C12 10.7808 9.31371 13.4671 6 13.4671C2.68629 13.4671 0 10.7808 0 7.46706V6.40039C0 6.0322 0.298477 5.73372 0.666667 5.73372Z" fill="#9A9CA5"/>
<path fill-rule="evenodd" clip-rule="evenodd" d="M6 12.6671C6.36819 12.6671 6.66667 12.9655 6.66667 13.3337V14.2671H8.13333C8.50152 14.2671 8.8 14.5655 8.8 14.9337C8.8 15.3019 8.50152 15.6004 8.13333 15.6004H3.86667C3.49848 15.6004 3.2 15.3019 3.2 14.9337C3.2 14.5655 3.49848 14.2671 3.86667 14.2671H5.33333V13.3337C5.33333 12.9655 5.63181 12.6671 6 12.6671Z" fill="#9A9CA5"/>
</svg>
