<svg width="12" height="16" viewBox="0 0 12 16" fill="none" xmlns="http://www.w3.org/2000/svg">
<path fill-rule="evenodd" clip-rule="evenodd" d="M3.3335 8.99967C3.3335 8.63148 3.63197 8.33301 4.00016 8.33301H8.00016C8.36835 8.33301 8.66683 8.63148 8.66683 8.99967C8.66683 9.36786 8.36835 9.66634 8.00016 9.66634H4.00016C3.63197 9.66634 3.3335 9.36786 3.3335 8.99967Z" fill="#9A9CA5"/>
<path fill-rule="evenodd" clip-rule="evenodd" d="M3.3335 11.4997C3.3335 11.1315 3.63197 10.833 4.00016 10.833H6.00016C6.36835 10.833 6.66683 11.1315 6.66683 11.4997C6.66683 11.8679 6.36835 12.1663 6.00016 12.1663H4.00016C3.63197 12.1663 3.3335 11.8679 3.3335 11.4997Z" fill="#9A9CA5"/>
<path fill-rule="evenodd" clip-rule="evenodd" d="M4.02877 1.02827C4.1538 0.903246 4.32337 0.833008 4.50018 0.833008H9.00018C10.4729 0.833008 11.6668 2.02692 11.6668 3.49967L11.6668 12.4997C11.6668 13.9724 10.4729 15.1663 9.00018 15.1663H3.00016C1.5274 15.1663 0.333492 13.9724 0.333496 12.4997L0.333513 4.99967C0.333513 4.82286 0.403751 4.65329 0.528775 4.52827L4.02877 1.02827ZM4.33349 2.60917V4.83301H2.10965L4.33349 2.60917ZM1.66684 6.16634L1.66683 12.4997C1.66683 13.2361 2.26378 13.833 3.00016 13.833H9.00018C9.73656 13.833 10.3335 13.2361 10.3335 12.4997L10.3335 3.49967C10.3335 2.76329 9.73656 2.16634 9.00018 2.16634H5.66682V5.49967C5.66682 5.86786 5.36835 6.16634 5.00016 6.16634H1.66684Z" fill="#9A9CA5"/>
</svg>
