<svg width="22" height="20" viewBox="0 0 22 20" fill="none" xmlns="http://www.w3.org/2000/svg">
<path fill-rule="evenodd" clip-rule="evenodd" d="M1.09961 0C1.65189 0 2.09961 0.447715 2.09961 1V5.43632C3.75764 2.20928 7.11959 0 10.9996 0C15.3552 0 19.058 2.78413 20.4303 6.66675C20.6144 7.18747 20.3414 7.75879 19.8207 7.94284C19.3 8.12689 18.7287 7.85396 18.5446 7.33325C17.4459 4.22472 14.4813 2 10.9996 2C8.03957 2 5.45326 3.60799 4.06955 6H7.09957C7.65186 6 8.09957 6.44772 8.09957 7C8.09957 7.55228 7.65186 8 7.09957 8H1.09961C0.547325 8 0.0996094 7.55228 0.0996094 7V1C0.0996094 0.447715 0.547325 0 1.09961 0Z" fill="#424551"/>
<path fill-rule="evenodd" clip-rule="evenodd" d="M2.17664 12.0572C2.69736 11.8731 3.26868 12.146 3.45273 12.6668C4.55144 15.7753 7.51608 18 10.9978 18C13.9578 18 16.5441 16.392 17.9278 14H14.8978C14.3455 14 13.8978 13.5523 13.8978 13C13.8978 12.4477 14.3455 12 14.8978 12H20.8977C21.45 12 21.8977 12.4477 21.8977 13V19C21.8977 19.5523 21.45 20 20.8977 20C20.3455 20 19.8977 19.5523 19.8977 19V14.5637C18.2397 17.7907 14.8778 20 10.9978 20C6.64215 20 2.93936 17.2159 1.56705 13.3332C1.383 12.8125 1.65593 12.2412 2.17664 12.0572Z" fill="#424551"/>
</svg>
