<svg width="20" height="20" viewBox="0 0 20 20" fill="none" xmlns="http://www.w3.org/2000/svg">
<path fill-rule="evenodd" clip-rule="evenodd" d="M0.833334 2.91634C0.833334 1.76575 1.76607 0.833008 2.91667 0.833008H17.0833C18.2339 0.833008 19.1667 1.76575 19.1667 2.91634V7.08301C19.1667 8.2336 18.2339 9.16634 17.0833 9.16634H2.91667C1.76607 9.16634 0.833334 8.2336 0.833334 7.08301V2.91634ZM2.91667 2.49967C2.68655 2.49967 2.5 2.68622 2.5 2.91634V7.08301C2.5 7.31313 2.68655 7.49967 2.91667 7.49967H17.0833C17.3135 7.49967 17.5 7.31313 17.5 7.08301V2.91634C17.5 2.68622 17.3135 2.49967 17.0833 2.49967H2.91667Z" fill="#FF3F3A"/>
<path fill-rule="evenodd" clip-rule="evenodd" d="M0.833334 12.9163C0.833334 11.7657 1.76607 10.833 2.91667 10.833H17.0833C18.2339 10.833 19.1667 11.7657 19.1667 12.9163V17.083C19.1667 18.2336 18.2339 19.1663 17.0833 19.1663H2.91667C1.76607 19.1663 0.833334 18.2336 0.833334 17.083V12.9163ZM2.91667 12.4997C2.68655 12.4997 2.5 12.6862 2.5 12.9163V17.083C2.5 17.3131 2.68655 17.4997 2.91667 17.4997H17.0833C17.3135 17.4997 17.5 17.3131 17.5 17.083V12.9163C17.5 12.6862 17.3135 12.4997 17.0833 12.4997H2.91667Z" fill="#FF3F3A"/>
</svg>
